<?xml version="1.0" standalone="no"?>
 <!DOCTYPE svg PUBLIC "-//W3C//DTD SVG 1.1//EN" 
 "http://www.w3.org/Graphics/SVG/1.1/DTD/svg11.dtd"> 
<svg xmlns="http://www.w3.org/2000/svg" version="1.1" 
    width="29.7002cm" height="21.0007cm" viewBox="0 0 116930 82680 ">
<title>SVG Picture created as stlink-B.Mask.svg date 2019/01/05 15:39:24 </title>
  <desc>Picture generated by PCBNEW </desc>
<g style="fill:#000000; fill-opacity:1;stroke:#000000; stroke-opacity:1;
stroke-linecap:round; stroke-linejoin:round; "
 transform="translate(0 0) scale(1 1)">
</g>
<g style="fill:#000000; fill-opacity:0.0; 
stroke:#000000; stroke-width:-0.000393701; stroke-opacity:1; 
stroke-linecap:round; stroke-linejoin:round;">
</g>
<g style="fill:#000000; fill-opacity:0.0; 
stroke:#000000; stroke-width:19.685; stroke-opacity:1; 
stroke-linecap:round; stroke-linejoin:round;">
<path d="M63385 55118
L39370 55118
" />
<path d="M63385 38188
L63385 55118
" />
<path d="M39370 38188
L63385 38188
" />
<path d="M39370 55118
L39370 38188
" />
</g>
<g style="fill:#000000; fill-opacity:1.0; 
stroke:#000000; stroke-width:0; stroke-opacity:1; 
stroke-linecap:round; stroke-linejoin:round;">
<polyline style="fill-rule:evenodd;"
points="50077,53111
50151,53134
50220,53170
50280,53219
50329,53279
50365,53348
50388,53422
50396,53500
50388,53577
50365,53651
50329,53720
50280,53780
50220,53829
50151,53865
50077,53888
50019,53894
49980,53894
49922,53888
49848,53865
49779,53829
49719,53780
49670,53720
49634,53651
49611,53577
49603,53500
49611,53422
49634,53348
49670,53279
49719,53219
49779,53170
49848,53134
49922,53111
49980,53105
50019,53105
50077,53111
" /> 
<polyline style="fill-rule:evenodd;"
points="49077,53111
49151,53134
49220,53170
49280,53219
49329,53279
49365,53348
49388,53422
49396,53500
49388,53577
49365,53651
49329,53720
49280,53780
49220,53829
49151,53865
49077,53888
49019,53894
48980,53894
48922,53888
48848,53865
48779,53829
48719,53780
48670,53720
48634,53651
48611,53577
48603,53500
48611,53422
48634,53348
48670,53279
48719,53219
48779,53170
48848,53134
48922,53111
48980,53105
49019,53105
49077,53111
" /> 
<polyline style="fill-rule:evenodd;"
points="46394,53894
45605,53894
45605,53105
46394,53105
46394,53894
" /> 
<polyline style="fill-rule:evenodd;"
points="48077,53111
48151,53134
48220,53170
48280,53219
48329,53279
48365,53348
48388,53422
48396,53500
48388,53577
48365,53651
48329,53720
48280,53780
48220,53829
48151,53865
48077,53888
48019,53894
47980,53894
47922,53888
47848,53865
47779,53829
47719,53780
47670,53720
47634,53651
47611,53577
47603,53500
47611,53422
47634,53348
47670,53279
47719,53219
47779,53170
47848,53134
47922,53111
47980,53105
48019,53105
48077,53111
" /> 
<polyline style="fill-rule:evenodd;"
points="47077,53111
47151,53134
47220,53170
47280,53219
47329,53279
47365,53348
47388,53422
47396,53500
47388,53577
47365,53651
47329,53720
47280,53780
47220,53829
47151,53865
47077,53888
47019,53894
46980,53894
46922,53888
46848,53865
46779,53829
46719,53780
46670,53720
46634,53651
46611,53577
46603,53500
46611,53422
46634,53348
46670,53279
46719,53219
46779,53170
46848,53134
46922,53111
46980,53105
47019,53105
47077,53111
" /> 
<polyline style="fill-rule:evenodd;"
points="62177,52610
62177,52610
62177,52610
62241,52629
62241,52629
62241,52629
62299,52661
62350,52702
62392,52753
62423,52812
62423,52812
62423,52812
62428,52829
62442,52875
62447,52924
62447,53075
62442,53124
62442,53124
62442,53124
62428,53170
62423,53187
62392,53246
62350,53297
62299,53338
62241,53370
62241,53370
62241,53370
62177,53389
62177,53389
62177,53389
62112,53395
62046,53389
62046,53389
62046,53389
61983,53370
61983,53370
61983,53370
61925,53338
61883,53304
61874,53297
61832,53246
61832,53246
61832,53246
61801,53187
61795,53170
61782,53124
61782,53124
61782,53124
61777,53075
61777,52924
61782,52875
61782,52875
61801,52812
61801,52812
61801,52812
61832,52753
61874,52702
61925,52661
61983,52629
61983,52629
61983,52629
62046,52610
62046,52610
62046,52610
62112,52604
62177,52610
" /> 
<polyline style="fill-rule:evenodd;"
points="60603,52610
60603,52610
60603,52610
60666,52629
60666,52629
60666,52629
60724,52661
60775,52702
60817,52753
60848,52812
60848,52812
60848,52812
60853,52829
60867,52875
60872,52924
60872,53075
60867,53124
60867,53124
60867,53124
60853,53170
60848,53187
60817,53246
60775,53297
60724,53338
60666,53370
60666,53370
60666,53370
60603,53389
60603,53389
60603,53389
60537,53395
60471,53389
60471,53389
60471,53389
60408,53370
60408,53370
60408,53370
60350,53338
60308,53304
60299,53297
60257,53246
60257,53246
60257,53246
60226,53187
60221,53170
60207,53124
60207,53124
60207,53124
60202,53075
60202,52924
60207,52875
60207,52875
60226,52812
60226,52812
60226,52812
60257,52753
60299,52702
60350,52661
60408,52629
60408,52629
60408,52629
60471,52610
60471,52610
60471,52610
60537,52604
60603,52610
" /> 
<polyline style="fill-rule:evenodd;"
points="61390,52610
61390,52610
61390,52610
61453,52629
61453,52629
61453,52629
61511,52661
61562,52702
61604,52753
61635,52812
61635,52812
61635,52812
61641,52829
61654,52875
61659,52924
61659,53075
61654,53124
61654,53124
61654,53124
61641,53170
61635,53187
61604,53246
61562,53297
61511,53338
61453,53370
61453,53370
61453,53370
61390,53389
61390,53389
61390,53389
61324,53395
61259,53389
61259,53389
61259,53389
61195,53370
61195,53370
61195,53370
61137,53338
61096,53304
61086,53297
61044,53246
61044,53246
61044,53246
61013,53187
61008,53170
60994,53124
60994,53124
60994,53124
60989,53075
60989,52924
60994,52875
60994,52875
61013,52812
61013,52812
61013,52812
61044,52753
61086,52702
61137,52661
61195,52629
61195,52629
61195,52629
61259,52610
61259,52610
61259,52610
61324,52604
61390,52610
" /> 
<polyline style="fill-rule:evenodd;"
points="59995,52608
60016,52614
60035,52624
60052,52638
60066,52655
60076,52674
60082,52695
60085,52718
60085,53281
60082,53304
60076,53325
60066,53344
60052,53361
60035,53375
60016,53385
59995,53391
59971,53394
59528,53394
59504,53391
59483,53385
59464,53375
59447,53361
59433,53344
59423,53325
59417,53304
59414,53281
59414,52718
59417,52695
59423,52674
59433,52655
59447,52638
59464,52624
59483,52614
59504,52608
59528,52605
59971,52605
59995,52608
" /> 
<polyline style="fill-rule:evenodd;"
points="49077,52111
49151,52134
49220,52170
49280,52219
49329,52279
49365,52348
49388,52422
49396,52500
49388,52577
49365,52651
49329,52720
49280,52780
49220,52829
49151,52865
49077,52888
49019,52894
48980,52894
48922,52888
48848,52865
48779,52829
48719,52780
48670,52720
48634,52651
48611,52577
48603,52500
48611,52422
48634,52348
48670,52279
48719,52219
48779,52170
48848,52134
48922,52111
48980,52105
49019,52105
49077,52111
" /> 
<polyline style="fill-rule:evenodd;"
points="50077,52111
50151,52134
50220,52170
50280,52219
50329,52279
50365,52348
50388,52422
50396,52500
50388,52577
50365,52651
50329,52720
50280,52780
50220,52829
50151,52865
50077,52888
50019,52894
49980,52894
49922,52888
49848,52865
49779,52829
49719,52780
49670,52720
49634,52651
49611,52577
49603,52500
49611,52422
49634,52348
49670,52279
49719,52219
49779,52170
49848,52134
49922,52111
49980,52105
50019,52105
50077,52111
" /> 
<polyline style="fill-rule:evenodd;"
points="48077,52111
48151,52134
48220,52170
48280,52219
48329,52279
48365,52348
48388,52422
48396,52500
48388,52577
48365,52651
48329,52720
48280,52780
48220,52829
48151,52865
48077,52888
48019,52894
47980,52894
47922,52888
47848,52865
47779,52829
47719,52780
47670,52720
47634,52651
47611,52577
47603,52500
47611,52422
47634,52348
47670,52279
47719,52219
47779,52170
47848,52134
47922,52111
47980,52105
48019,52105
48077,52111
" /> 
<polyline style="fill-rule:evenodd;"
points="47077,52111
47151,52134
47220,52170
47280,52219
47329,52279
47365,52348
47388,52422
47396,52500
47388,52577
47365,52651
47329,52720
47280,52780
47220,52829
47151,52865
47077,52888
47019,52894
46980,52894
46922,52888
46848,52865
46779,52829
46719,52780
46670,52720
46634,52651
46611,52577
46603,52500
46611,52422
46634,52348
46670,52279
46719,52219
46779,52170
46848,52134
46922,52111
46980,52105
47019,52105
47077,52111
" /> 
<polyline style="fill-rule:evenodd;"
points="46077,52111
46151,52134
46220,52170
46280,52219
46329,52279
46365,52348
46388,52422
46396,52500
46388,52577
46365,52651
46329,52720
46280,52780
46220,52829
46151,52865
46077,52888
46019,52894
45980,52894
45922,52888
45848,52865
45779,52829
45719,52780
45670,52720
45634,52651
45611,52577
45603,52500
45611,52422
45634,52348
45670,52279
45719,52219
45779,52170
45848,52134
45922,52111
45980,52105
46019,52105
46077,52111
" /> 
<polyline style="fill-rule:evenodd;"
points="46394,50644
45605,50644
45605,49855
46394,49855
46394,50644
" /> 
<polyline style="fill-rule:evenodd;"
points="45077,49861
45151,49884
45220,49920
45280,49969
45329,50029
45365,50098
45388,50172
45396,50250
45388,50327
45365,50401
45329,50470
45280,50530
45220,50579
45151,50615
45077,50638
45019,50644
44980,50644
44922,50638
44848,50615
44779,50579
44719,50530
44670,50470
44634,50401
44611,50327
44603,50250
44611,50172
44634,50098
44670,50029
44719,49969
44779,49920
44848,49884
44922,49861
44980,49855
45019,49855
45077,49861
" /> 
<polyline style="fill-rule:evenodd;"
points="46077,48861
46151,48884
46220,48920
46280,48969
46329,49029
46365,49098
46388,49172
46396,49250
46388,49327
46365,49401
46329,49470
46280,49530
46220,49579
46151,49615
46077,49638
46019,49644
45980,49644
45922,49638
45848,49615
45779,49579
45719,49530
45670,49470
45634,49401
45611,49327
45603,49250
45611,49172
45634,49098
45670,49029
45719,48969
45779,48920
45848,48884
45922,48861
45980,48855
46019,48855
46077,48861
" /> 
<polyline style="fill-rule:evenodd;"
points="45077,48861
45151,48884
45220,48920
45280,48969
45329,49029
45365,49098
45388,49172
45396,49250
45388,49327
45365,49401
45329,49470
45280,49530
45220,49579
45151,49615
45077,49638
45019,49644
44980,49644
44922,49638
44848,49615
44779,49579
44719,49530
44670,49470
44634,49401
44611,49327
44603,49250
44611,49172
44634,49098
44670,49029
44719,48969
44779,48920
44848,48884
44922,48861
44980,48855
45019,48855
45077,48861
" /> 
<polyline style="fill-rule:evenodd;"
points="46077,47861
46151,47884
46220,47920
46280,47969
46329,48029
46365,48098
46388,48172
46396,48250
46388,48327
46365,48401
46329,48470
46280,48530
46220,48579
46151,48615
46077,48638
46019,48644
45980,48644
45922,48638
45848,48615
45779,48579
45719,48530
45670,48470
45634,48401
45611,48327
45603,48250
45611,48172
45634,48098
45670,48029
45719,47969
45779,47920
45848,47884
45922,47861
45980,47855
46019,47855
46077,47861
" /> 
<polyline style="fill-rule:evenodd;"
points="45077,47861
45151,47884
45220,47920
45280,47969
45329,48029
45365,48098
45388,48172
45396,48250
45388,48327
45365,48401
45329,48470
45280,48530
45220,48579
45151,48615
45077,48638
45019,48644
44980,48644
44922,48638
44848,48615
44779,48579
44719,48530
44670,48470
44634,48401
44611,48327
44603,48250
44611,48172
44634,48098
44670,48029
44719,47969
44779,47920
44848,47884
44922,47861
44980,47855
45019,47855
45077,47861
" /> 
<polyline style="fill-rule:evenodd;"
points="57827,46611
57901,46634
57970,46670
58030,46719
58079,46779
58115,46848
58138,46922
58146,47000
58138,47077
58115,47151
58079,47220
58030,47280
57970,47329
57901,47365
57827,47388
57769,47394
57730,47394
57672,47388
57598,47365
57529,47329
57469,47280
57420,47220
57384,47151
57361,47077
57353,47000
57361,46922
57384,46848
57420,46779
57469,46719
57529,46670
57598,46634
57672,46611
57730,46605
57769,46605
57827,46611
" /> 
<polyline style="fill-rule:evenodd;"
points="58827,46611
58901,46634
58970,46670
59030,46719
59079,46779
59115,46848
59138,46922
59146,47000
59138,47077
59115,47151
59079,47220
59030,47280
58970,47329
58901,47365
58827,47388
58769,47394
58730,47394
58672,47388
58598,47365
58529,47329
58469,47280
58420,47220
58384,47151
58361,47077
58353,47000
58361,46922
58384,46848
58420,46779
58469,46719
58529,46670
58598,46634
58672,46611
58730,46605
58769,46605
58827,46611
" /> 
<polyline style="fill-rule:evenodd;"
points="44244,46894
43455,46894
43455,46105
44244,46105
44244,46894
" /> 
<polyline style="fill-rule:evenodd;"
points="42964,46121
43036,46150
43101,46193
43156,46248
43199,46313
43228,46385
43244,46461
43244,46538
43228,46614
43199,46686
43156,46751
43101,46806
43036,46849
42964,46878
42888,46894
42811,46894
42735,46878
42663,46849
42598,46806
42543,46751
42500,46686
42471,46614
42455,46538
42455,46461
42471,46385
42500,46313
42543,46248
42598,46193
42663,46150
42735,46121
42811,46105
42888,46105
42964,46121
" /> 
<polyline style="fill-rule:evenodd;"
points="57827,45611
57901,45634
57970,45670
58030,45719
58079,45779
58115,45848
58138,45922
58146,46000
58138,46077
58115,46151
58079,46220
58030,46280
57970,46329
57901,46365
57827,46388
57769,46394
57730,46394
57672,46388
57598,46365
57529,46329
57469,46280
57420,46220
57384,46151
57361,46077
57353,46000
57361,45922
57384,45848
57420,45779
57469,45719
57529,45670
57598,45634
57672,45611
57730,45605
57769,45605
57827,45611
" /> 
<polyline style="fill-rule:evenodd;"
points="58827,45611
58901,45634
58970,45670
59030,45719
59079,45779
59115,45848
59138,45922
59146,46000
59138,46077
59115,46151
59079,46220
59030,46280
58970,46329
58901,46365
58827,46388
58769,46394
58730,46394
58672,46388
58598,46365
58529,46329
58469,46280
58420,46220
58384,46151
58361,46077
58353,46000
58361,45922
58384,45848
58420,45779
58469,45719
58529,45670
58598,45634
58672,45611
58730,45605
58769,45605
58827,45611
" /> 
<polyline style="fill-rule:evenodd;"
points="53584,44574
53626,44583
53640,44588
53705,44615
53776,44663
53836,44723
53884,44794
53916,44873
53933,44957
53933,45042
53916,45126
53884,45205
53836,45276
53776,45336
53705,45384
53654,45405
53626,45416
53584,45425
53542,45433
53457,45433
53415,45425
53373,45416
53345,45405
53294,45384
53223,45336
53163,45276
53115,45205
53083,45126
53066,45042
53066,44957
53083,44873
53115,44794
53163,44723
53223,44663
53294,44615
53359,44588
53373,44583
53415,44574
53457,44566
53542,44566
53584,44574
" /> 
<polyline style="fill-rule:evenodd;"
points="58144,45394
57355,45394
57355,44605
58144,44605
58144,45394
" /> 
<polyline style="fill-rule:evenodd;"
points="58827,44611
58901,44634
58970,44670
59030,44719
59079,44779
59115,44848
59138,44922
59146,45000
59138,45077
59115,45151
59079,45220
59030,45280
58970,45329
58901,45365
58827,45388
58769,45394
58730,45394
58672,45388
58598,45365
58529,45329
58469,45280
58420,45220
58384,45151
58361,45077
58353,45000
58361,44922
58384,44848
58420,44779
58469,44719
58529,44670
58598,44634
58672,44611
58730,44605
58769,44605
58827,44611
" /> 
<polyline style="fill-rule:evenodd;"
points="61077,44611
61151,44634
61220,44670
61280,44719
61329,44779
61365,44848
61388,44922
61396,45000
61388,45077
61365,45151
61329,45220
61280,45280
61220,45329
61151,45365
61077,45388
61019,45394
60980,45394
60922,45388
60848,45365
60779,45329
60719,45280
60670,45220
60634,45151
60611,45077
60603,45000
60611,44922
60634,44848
60670,44779
60719,44719
60779,44670
60848,44634
60922,44611
60980,44605
61019,44605
61077,44611
" /> 
<polyline style="fill-rule:evenodd;"
points="62394,45394
61605,45394
61605,44605
62394,44605
62394,45394
" /> 
<polyline style="fill-rule:evenodd;"
points="43244,44944
42455,44944
42455,44155
43244,44155
43244,44944
" /> 
<polyline style="fill-rule:evenodd;"
points="43964,44171
44036,44200
44101,44243
44156,44298
44199,44363
44228,44435
44244,44511
44244,44588
44228,44664
44199,44736
44156,44801
44101,44856
44036,44899
43964,44928
43888,44944
43811,44944
43735,44928
43663,44899
43598,44856
43543,44801
43500,44736
43471,44664
43455,44588
43455,44511
43471,44435
43500,44363
43543,44298
43598,44243
43663,44200
43735,44171
43811,44155
43888,44155
43964,44171
" /> 
<polyline style="fill-rule:evenodd;"
points="62077,43611
62151,43634
62220,43670
62280,43719
62329,43779
62365,43848
62388,43922
62396,44000
62388,44077
62365,44151
62329,44220
62280,44280
62220,44329
62151,44365
62077,44388
62019,44394
61980,44394
61922,44388
61848,44365
61779,44329
61719,44280
61670,44220
61634,44151
61611,44077
61603,44000
61611,43922
61634,43848
61670,43779
61719,43719
61779,43670
61848,43634
61922,43611
61980,43605
62019,43605
62077,43611
" /> 
<polyline style="fill-rule:evenodd;"
points="61077,43611
61151,43634
61220,43670
61280,43719
61329,43779
61365,43848
61388,43922
61396,44000
61388,44077
61365,44151
61329,44220
61280,44280
61220,44329
61151,44365
61077,44388
61019,44394
60980,44394
60922,44388
60848,44365
60779,44329
60719,44280
60670,44220
60634,44151
60611,44077
60603,44000
60611,43922
60634,43848
60670,43779
60719,43719
60779,43670
60848,43634
60922,43611
60980,43605
61019,43605
61077,43611
" /> 
<polyline style="fill-rule:evenodd;"
points="53584,42653
53626,42661
53647,42670
53705,42694
53776,42742
53836,42802
53884,42873
53916,42952
53933,43036
53933,43121
53916,43205
53884,43284
53836,43355
53776,43415
53705,43462
53654,43483
53626,43495
53584,43503
53542,43512
53457,43512
53415,43503
53373,43495
53345,43483
53294,43462
53223,43415
53163,43355
53115,43284
53083,43205
53066,43121
53066,43036
53083,42952
53115,42873
53163,42802
53223,42742
53294,42694
53352,42670
53373,42661
53415,42653
53457,42645
53542,42645
53584,42653
" /> 
<polyline style="fill-rule:evenodd;"
points="61077,42611
61151,42634
61220,42670
61280,42719
61329,42779
61365,42848
61388,42922
61396,43000
61388,43077
61365,43151
61329,43220
61280,43280
61220,43329
61151,43365
61077,43388
61019,43394
60980,43394
60922,43388
60848,43365
60779,43329
60719,43280
60670,43220
60634,43151
60611,43077
60603,43000
60611,42922
60634,42848
60670,42779
60719,42719
60779,42670
60848,42634
60922,42611
60980,42605
61019,42605
61077,42611
" /> 
<polyline style="fill-rule:evenodd;"
points="62077,42611
62151,42634
62220,42670
62280,42719
62329,42779
62365,42848
62388,42922
62396,43000
62388,43077
62365,43151
62329,43220
62280,43280
62220,43329
62151,43365
62077,43388
62019,43394
61980,43394
61922,43388
61848,43365
61779,43329
61719,43280
61670,43220
61634,43151
61611,43077
61603,43000
61611,42922
61634,42848
61670,42779
61719,42719
61779,42670
61848,42634
61922,42611
61980,42605
62019,42605
62077,42611
" /> 
<polyline style="fill-rule:evenodd;"
points="62077,41611
62151,41634
62220,41670
62280,41719
62329,41779
62365,41848
62388,41922
62396,42000
62388,42077
62365,42151
62329,42220
62280,42280
62220,42329
62151,42365
62077,42388
62019,42394
61980,42394
61922,42388
61848,42365
61779,42329
61719,42280
61670,42220
61634,42151
61611,42077
61603,42000
61611,41922
61634,41848
61670,41779
61719,41719
61779,41670
61848,41634
61922,41611
61980,41605
62019,41605
62077,41611
" /> 
<polyline style="fill-rule:evenodd;"
points="61077,41611
61151,41634
61220,41670
61280,41719
61329,41779
61365,41848
61388,41922
61396,42000
61388,42077
61365,42151
61329,42220
61280,42280
61220,42329
61151,42365
61077,42388
61019,42394
60980,42394
60922,42388
60848,42365
60779,42329
60719,42280
60670,42220
60634,42151
60611,42077
60603,42000
60611,41922
60634,41848
60670,41779
60719,41719
60779,41670
60848,41634
60922,41611
60980,41605
61019,41605
61077,41611
" /> 
<polyline style="fill-rule:evenodd;"
points="61077,40611
61151,40634
61220,40670
61280,40719
61329,40779
61365,40848
61388,40922
61396,41000
61388,41077
61365,41151
61329,41220
61280,41280
61220,41329
61151,41365
61077,41388
61019,41394
60980,41394
60922,41388
60848,41365
60779,41329
60719,41280
60670,41220
60634,41151
60611,41077
60603,41000
60611,40922
60634,40848
60670,40779
60719,40719
60779,40670
60848,40634
60922,40611
60980,40605
61019,40605
61077,40611
" /> 
<polyline style="fill-rule:evenodd;"
points="62077,40611
62151,40634
62220,40670
62280,40719
62329,40779
62365,40848
62388,40922
62396,41000
62388,41077
62365,41151
62329,41220
62280,41280
62220,41329
62151,41365
62077,41388
62019,41394
61980,41394
61922,41388
61848,41365
61779,41329
61719,41280
61670,41220
61634,41151
61611,41077
61603,41000
61611,40922
61634,40848
61670,40779
61719,40719
61779,40670
61848,40634
61922,40611
61980,40605
62019,40605
62077,40611
" /> 
</g> 
</svg>
