<?xml version="1.0" standalone="no"?>
 <!DOCTYPE svg PUBLIC "-//W3C//DTD SVG 1.1//EN" 
 "http://www.w3.org/Graphics/SVG/1.1/DTD/svg11.dtd"> 
<svg xmlns="http://www.w3.org/2000/svg" version="1.1" 
    width="29.7002cm" height="21.0007cm" viewBox="0 0 116930 82680 ">
<title>SVG Picture created as stlink-Dwgs.User.svg date 2019/01/05 15:39:24 </title>
  <desc>Picture generated by PCBNEW </desc>
<g style="fill:#000000; fill-opacity:1;stroke:#000000; stroke-opacity:1;
stroke-linecap:round; stroke-linejoin:round; "
 transform="translate(0 0) scale(1 1)">
</g>
<g style="fill:#000000; fill-opacity:0.0; 
stroke:#000000; stroke-width:-0.000393701; stroke-opacity:1; 
stroke-linecap:round; stroke-linejoin:round;">
</g>
<g style="fill:#000000; fill-opacity:0.0; 
stroke:#000000; stroke-width:19.685; stroke-opacity:1; 
stroke-linecap:round; stroke-linejoin:round;">
<path d="M63385 55118
L39370 55118
" />
<path d="M63385 38188
L63385 55118
" />
<path d="M39370 38188
L63385 38188
" />
<path d="M39370 55118
L39370 38188
" />
</g>
<g style="fill:#000000; fill-opacity:0.0; 
stroke:#000000; stroke-width:15.748; stroke-opacity:1; 
stroke-linecap:round; stroke-linejoin:round;">
<path d="M39425 43051
L39268 43051
L39268 42991
L39275 42976
L39283 42969
L39298 42961
L39320 42961
L39335 42969
L39343 42976
L39350 42991
L39350 43051
" />
<path d="M39410 42804
L39418 42811
L39425 42834
L39425 42849
L39418 42871
L39403 42886
L39388 42894
L39358 42901
L39335 42901
L39305 42894
L39290 42886
L39275 42871
L39268 42849
L39268 42834
L39275 42811
L39283 42804
" />
<path d="M39343 42684
L39350 42661
L39358 42654
L39373 42646
L39395 42646
L39410 42654
L39418 42661
L39425 42676
L39425 42736
L39268 42736
L39268 42684
L39275 42669
L39283 42661
L39298 42654
L39313 42654
L39328 42661
L39335 42669
L39343 42684
L39343 42736
" />
<path d="M39343 42459
L39343 42406
" />
<path d="M39425 42384
L39425 42459
L39268 42459
L39268 42384
" />
<path d="M39425 42249
L39268 42249
" />
<path d="M39418 42249
L39425 42264
L39425 42294
L39418 42309
L39410 42316
L39395 42324
L39350 42324
L39335 42316
L39328 42309
L39320 42294
L39320 42264
L39328 42249
" />
<path d="M39320 42106
L39448 42106
L39463 42114
L39470 42121
L39478 42136
L39478 42159
L39470 42174
" />
<path d="M39418 42106
L39425 42121
L39425 42151
L39418 42166
L39410 42174
L39395 42181
L39350 42181
L39335 42174
L39328 42166
L39320 42151
L39320 42121
L39328 42106
" />
<path d="M39418 41971
L39425 41986
L39425 42016
L39418 42031
L39403 42039
L39343 42039
L39328 42031
L39320 42016
L39320 41986
L39328 41971
L39343 41964
L39358 41964
L39373 42039
" />
</g> 
</svg>
